PathFileType	4	(X/Y/Z)	/Users/mathieubourgeois/Desktop/Analyse/Traitement/Sujet_02/Data/Transformed_Sujet_02_velo_80.trc
DataRate	CameraRate	NumFrames	NumMarkers	Units	OrigDataRate	OrigDataStartFrame	OrigNumFrames
120.000000	120.000000	4	36	mm	120.000000	1178	1886
Frame#	Time	RFHD			RANE			STRN			LANI			LKNE			T10			RHUM			RWRB			C7			LFWT			LTOE			RTOE			LWRA			LBWT			RBWT			RFWT			LKNI			RKNI			RKNE			LANE			RANI			LHEE			RHEE			LHUM			LRAD			RRAD			RWRA			LWRB			LFHD			LBHD			RBHD			RSHO			LSHO			CLAV			LCAR			RCAR			
		X1	Y1	Z1	X2	Y2	Z2	X3	Y3	Z3	X4	Y4	Z4	X5	Y5	Z5	X6	Y6	Z6	X7	Y7	Z7	X8	Y8	Z8	X9	Y9	Z9	X10	Y10	Z10	X11	Y11	Z11	X12	Y12	Z12	X13	Y13	Z13	X14	Y14	Z14	X15	Y15	Z15	X16	Y16	Z16	X17	Y17	Z17	X18	Y18	Z18	X19	Y19	Z19	X20	Y20	Z20	X21	Y21	Z21	X22	Y22	Z22	X23	Y23	Z23	X24	Y24	Z24	X25	Y25	Z25	X26	Y26	Z26	X27	Y27	Z27	X28	Y28	Z28	X29	Y29	Z29	X30	Y30	Z30	X31	Y31	Z31	X32	Y32	Z32	X33	Y33	Z33	X34	Y34	Z34	X35	Y35	Z35	X36	Y36	Z36	

1179	9.816666666666666	50.71351242065428	1506.738403320312	120.9475860595702	-295.4323120117188	267.8899841308594	176.2287139892578	-216.8200225830078	1279.4716796875	22.35494804382314	-211.9622955322266	623.9736938476562	-63.64726638793952	-38.08348846435545	1001.360900878906	-127.8032684326172	-371.6281433105469	1515.849243164062	18.66241264343248	-50.7812194824219	1193.508544921875	221.6440887451171	176.569595336914	1024.1171875	168.3138885498047	-136.1434936523438	1585.513549804688	7.445791244506722	-398.7700500488281	1219.804565429688	-89.44196319580089	-24.73841667175291	531.41162109375	-134.9493103027344	-88.92685699462892	178.5075531005859	150.8784790039062	217.47607421875	1048.664306640625	-159.2473754882813	-589.7379150390625	1202.664672851562	-46.85745620727553	-591.6124267578125	1208.477294921875	75.23786163330064	-418.501708984375	1225.95947265625	176.8081207275389	3.539410591125491	973.4572143554688	-21.8432407379151	-180.4982452392578	691.9296264648438	98.13089752197259	-228.5401763916016	729.802001953125	199.3113708496093	-233.8152923583984	617.8646850585938	-155.2048950195313	-267.0929260253906	284.2307434082031	90.09689331054683	-307.154296875	592.4888305664062	-110.5642318725587	-367.5044860839844	246.7957153320312	122.4605636596679	-27.08486366271971	1208.866088867188	-177.263900756836	31.24255943298342	1249.955688476562	-196.2743530273438	5.067146778106658	1242.431030273438	257.4490051269531	207.2561645507812	1056.574462890625	222.4827575683593	179.479248046875	1022.720092773438	-100.287094116211	67.19213104248047	1458.3291015625	-28.38166999816903	-20.61075973510741	1579.174560546875	-63.33635711669932	-19.83510780334474	1614.680053710938	91.79824829101553	-124.7595520019531	1524.679321289062	158.9525756835936	-119.8745193481445	1513.248413085938	-122.3972625732423	-108.5133285522461	1425.473754882812	8.634793281555076	292.1654357910156	1036.921264648438	-74.15374755859376	294.0599670410156	1019.069580078125	146.7525939941406	
1180	9.824999999999999	50.57873535156249	1506.46044921875	120.448387145996	-305.7715454101562	272.1929931640625	176.0810394287109	-217.4672546386719	1279.579833984375	22.30657768249501	-198.4600372314453	617.437255859375	-63.61869049072271	-38.16321945190428	1001.301391601562	-127.4484481811524	-371.9223022460938	1515.991943359375	18.36419105529771	-50.94662857055667	1193.26611328125	221.0808715820312	176.5831909179687	1024.061157226562	168.0800628662109	-136.3014678955078	1585.387573242188	7.36389589309681	-399.2170715332031	1219.944580078125	-89.70740509033214	-14.54214096069334	531.5631713867188	-134.7842864990235	-101.2283325195313	178.3885498046875	150.8062133789062	217.5053100585938	1048.69482421875	-159.4109802246094	-590.2579956054688	1202.588989257812	-47.31596374511733	-592.2164916992188	1208.343383789062	74.79994964599595	-419.1428527832031	1226.14208984375	176.6073303222655	3.8339638710022	973.92431640625	-21.67953491210944	-179.2447509765625	693.140625	98.67819976806634	-227.0928344726563	731.507080078125	199.7024688720702	-224.454605102539	612.5352783203125	-155.3579711914063	-277.0267944335938	287.8668518066406	89.95303344726558	-297.5628967285156	585.0841674804688	-110.5162811279298	-378.2372741699219	252.6959686279297	122.2405929565429	-27.05845451354978	1208.935668945312	-177.4349975585938	31.26687431335452	1250.02490234375	-196.3769989013673	4.84606361389157	1242.209838867188	257.0718383789062	207.2237243652343	1056.5400390625	222.2659149169922	179.5443725585938	1022.818237304688	-100.4325332641602	66.73603820800781	1458.07763671875	-28.98100852966317	-21.05459213256835	1578.990356445312	-63.61188125610362	-19.99496269226075	1614.491333007812	91.47357940673818	-124.9941635131836	1524.436401367188	158.8019866943358	-119.8901596069336	1513.238525390625	-122.523765563965	-108.8633270263672	1425.16552734375	8.55780792236318	292.2498168945312	1036.786254882812	-74.36436462402345	294.05908203125	1019.134094238281	146.574722290039	
1181	9.833333333333334	50.52514266967772	1506.255615234375	120.0208892822265	-315.7601928710938	277.3777770996094	175.8900604248046	-218.0341949462891	1279.643188476562	22.05999755859364	-191.3713073730469	612.6091918945312	-63.79046249389654	-38.59924316406249	1000.108825683594	-127.3535995483399	-372.2313232421875	1516.150146484375	18.09035110473619	-51.06558990478518	1193.029663085938	220.581314086914	176.5882720947265	1024.031005859375	167.9342956542968	-136.5855560302734	1585.259033203125	7.381489276885873	-399.7389526367188	1220.1328125	-90.0132293701173	-3.644315004348738	532.1201782226562	-134.8955383300782	-113.3900680541992	179.2454071044922	150.7470550537109	217.5921936035157	1048.728271484375	-159.5239410400391	-590.7686767578125	1202.423583984375	-47.6155166625978	-592.7855834960938	1208.21435546875	74.4854583740233	-419.6830749511719	1226.302612304688	176.3173370361327	3.867166519165042	973.2230834960938	-21.82678222656256	-177.2005310058594	694.8355712890625	99.28240203857415	-225.0518798828125	733.6127319335938	200.1643829345702	-215.1735382080078	606.1736450195312	-155.5629882812501	-286.5744323730469	292.3964233398438	89.87465667724605	-287.6673889160156	576.6907958984375	-110.8079223632813	-388.6665954589844	259.4748229980469	121.9966812133788	-26.96540069580076	1209.02783203125	-177.5878906250001	31.38323211669924	1250.115356445312	-196.3961944580079	4.56642198562619	1241.978149414062	256.8000183105468	207.1766052246093	1056.517700195312	222.1286163330078	179.6060333251953	1022.872314453125	-100.5092926025391	66.30897521972656	1457.916137695312	-29.50473403930672	-21.58111381530761	1578.815185546875	-63.80585479736338	-20.16653060913087	1614.313720703125	91.27661895751943	-125.2829742431641	1524.187744140625	158.7454986572264	-119.9086685180664	1513.212768554688	-122.5922851562501	-109.1491317749023	1424.919311523438	8.447568893432516	292.3193054199219	1036.677001953125	-74.48461914062501	294.0633544921875	1019.18017578125	146.4532623291015	
1182	9.841666666666667	50.44238662719725	1506.086059570312	119.6485595703124	-325.3757934570312	283.4939270019531	175.6859893798828	-218.6093292236328	1279.689208984375	21.85914230346669	-181.5568542480469	605.349853515625	-64.68406677246101	-39.28810501098631	997.7055053710938	-127.4641571044922	-372.5553588867188	1516.278564453125	17.8669281005858	-51.22520446777347	1192.823608398438	220.1876831054687	176.5758972167968	1023.982727050781	167.8681488037109	-136.9076538085938	1585.137573242188	7.457955837249642	-400.2846984863281	1220.306518554688	-90.32231903076183	8.706996917724625	530.1009521484375	-133.88427734375	-125.2581787109375	181.1177825927734	150.7787475585937	217.6455230712891	1048.7392578125	-159.5752410888672	-591.3500366210938	1202.194580078125	-47.87530517578139	-593.3846435546875	1208.081665039062	74.20890045166001	-420.2509460449219	1226.47265625	176.0065307617186	3.631247282028201	971.2703247070312	-22.27090644836432	-174.6943206787109	696.9923095703125	100.0625457763671	-222.4553985595703	736.210205078125	200.7363739013671	-206.1596374511718	598.7966918945312	-155.7853698730469	-295.9606323242188	297.8228454589844	89.73301696777338	-277.7226867675781	567.4745483398438	-111.3866653442383	-398.74169921875	267.1517028808594	121.7752990722656	-26.84850502014158	1209.114990234375	-177.6490173339845	31.52133560180667	1250.214599609375	-196.3242187500001	4.312031745910613	1241.742797851562	256.5353393554687	207.1168518066406	1056.496948242188	222.0618438720703	179.6418762207031	1022.905883789062	-100.5573120117188	65.85459899902344	1457.776000976562	-29.93445396423348	-22.22681427001952	1578.607666015625	-64.00418853759776	-20.41590309143067	1614.10546875	91.15297698974599	-125.6194305419922	1523.877197265625	158.7676544189452	-119.9452438354492	1513.183715820312	-122.5553588867189	-109.4140701293945	1424.67724609375	8.401074409484762	292.36181640625	1036.591430664062	-74.56025695800783	294.0541076660156	1019.226867675781	146.397476196289	
